<svg width="163" height="28" viewBox="0 0 163 28" fill="none" xmlns="http://www.w3.org/2000/svg">
<g clip-path="url(#clip0_3391_7334)">
<path d="M19.041 14H24.641" stroke="#F4E723" stroke-width="2.24" stroke-linecap="round"/>
<path d="M18.3652 16.5195L23.215 19.3195" stroke="#F4E723" stroke-width="2.24" stroke-linecap="round"/>
<path d="M16.5215 18.3643L19.3215 23.214" stroke="#F4E723" stroke-width="2.24" stroke-linecap="round"/>
<path d="M14 19.04V24.64" stroke="#F4E723" stroke-width="2.24" stroke-linecap="round"/>
<path d="M11.4805 18.3643L8.68047 23.214" stroke="#F4E723" stroke-width="2.24" stroke-linecap="round"/>
<path d="M9.63672 16.5195L4.78698 19.3195" stroke="#F4E723" stroke-width="2.24" stroke-linecap="round"/>
<path d="M8.96094 14H3.36094" stroke="#F4E723" stroke-width="2.24" stroke-linecap="round"/>
<path d="M9.63672 11.4795L4.78698 8.67949" stroke="#F4E723" stroke-width="2.24" stroke-linecap="round"/>
<path d="M11.4805 9.63477L8.68047 4.78503" stroke="#F4E723" stroke-width="2.24" stroke-linecap="round"/>
<path d="M14 8.95996V3.35996" stroke="#F4E723" stroke-width="2.24" stroke-linecap="round"/>
<path d="M24.7582 9.59427C24.7701 9.5943 24.9981 9.4577 25.2648 9.2907C25.5315 9.12368 25.7444 8.97707 25.738 8.96492C25.7316 8.95277 25.6035 8.77982 25.4534 8.5806C25.1519 8.18051 24.8616 7.65159 24.733 7.26793C24.3321 6.07214 24.5166 4.83043 25.2441 3.82814L25.4294 3.57291L25.0767 3.22024L24.724 2.86755L24.4909 3.03368C22.9636 4.12211 21.1331 3.99687 19.5102 2.69297C19.4042 2.60782 19.3136 2.5421 19.3088 2.54689C19.2647 2.591 18.71 3.498 18.7101 3.52578C18.7102 3.54586 18.8072 3.62801 18.9257 3.70827C20.2375 4.5971 21.7384 4.88691 22.8986 4.47546L23.1769 4.37676L19.3077 8.26004L16.8611 10.7156L17.5748 11.4293L20.0367 8.9764L23.9109 5.11636L23.7935 5.47491C23.4889 6.40506 23.6136 7.50739 24.1493 8.61877C24.3019 8.93541 24.713 9.59406 24.7582 9.59427Z" fill="white"/>
</g>
<path d="M42.4562 22.1437C41.0128 22.1437 39.9706 21.7844 39.3297 21.0656C38.6948 20.3469 38.3773 19.2029 38.3773 17.6336V16.0883H41.5039V18.0648C41.5039 18.4302 41.5578 18.7177 41.6656 18.9273C41.7794 19.131 41.9741 19.2328 42.2496 19.2328C42.5371 19.2328 42.7348 19.149 42.8426 18.9813C42.9564 18.8135 43.0133 18.538 43.0133 18.1547C43.0133 17.6695 42.9654 17.2652 42.8695 16.9418C42.7737 16.6124 42.606 16.3009 42.3664 16.0074C42.1328 15.7079 41.8064 15.3605 41.3871 14.9652L39.9676 13.6176C38.9074 12.6173 38.3773 11.4733 38.3773 10.1855C38.3773 8.83789 38.6888 7.81068 39.3117 7.10391C39.9406 6.39714 40.848 6.04375 42.034 6.04375C43.4835 6.04375 44.5107 6.43008 45.1156 7.20273C45.7266 7.97539 46.032 9.14935 46.032 10.7246H42.8156V9.6375C42.8156 9.42188 42.7527 9.25417 42.627 9.13438C42.5072 9.01458 42.3424 8.95469 42.1328 8.95469C41.8812 8.95469 41.6956 9.02656 41.5758 9.17031C41.462 9.30807 41.4051 9.48776 41.4051 9.70938C41.4051 9.93099 41.465 10.1706 41.5848 10.4281C41.7046 10.6857 41.9411 10.9822 42.2945 11.3176L44.1184 13.0695C44.4837 13.4169 44.8191 13.7853 45.1246 14.1746C45.4301 14.5579 45.6757 15.0072 45.8613 15.5223C46.047 16.0314 46.1398 16.6543 46.1398 17.391C46.1398 18.8764 45.8643 20.0414 45.3133 20.8859C44.7682 21.7245 43.8159 22.1437 42.4562 22.1437ZM49.4766 22V9.22422H47.5989V6.1875H54.5169V9.22422H52.6391V22H49.4766ZM56.3173 22V6.1875H61.1689C61.9775 6.1875 62.5884 6.37318 63.0017 6.74453C63.415 7.1099 63.6905 7.625 63.8283 8.28984C63.972 8.9487 64.0439 9.72435 64.0439 10.6168C64.0439 11.4793 63.9331 12.1681 63.7115 12.6832C63.4959 13.1983 63.0856 13.5547 62.4806 13.7523C62.9778 13.8542 63.3252 14.1027 63.5228 14.498C63.7265 14.8874 63.8283 15.3935 63.8283 16.0164V22H60.7107V15.8098C60.7107 15.3486 60.6149 15.0641 60.4232 14.9563C60.2375 14.8424 59.9351 14.7855 59.5158 14.7855V22H56.3173ZM59.5337 12.0453H60.2974C60.7347 12.0453 60.9533 11.5691 60.9533 10.6168C60.9533 9.99987 60.9054 9.59557 60.8095 9.40391C60.7137 9.21224 60.534 9.11641 60.2705 9.11641H59.5337V12.0453ZM65.5748 22L67.1022 6.1875H72.4659L73.9663 22H70.9745L70.7498 19.4484H68.8452L68.6475 22H65.5748ZM69.0698 16.9238H70.5073L69.8155 8.88281H69.6717L69.0698 16.9238ZM76.9796 22V9.22422H75.1019V6.1875H82.0198V9.22422H80.1421V22H76.9796ZM83.8203 22V6.1875H90.1453V9.24219H87.0367V12.3238H90.0195V15.2977H87.0367V18.9184H90.352V22H83.8203ZM95.5845 22.1437C93.3264 22.1437 92.1973 20.5266 92.1973 17.2922V10.473C92.1973 7.52018 93.4911 6.04375 96.0786 6.04375C97.1447 6.04375 97.9623 6.25938 98.5313 6.69063C99.1003 7.11589 99.4927 7.7388 99.7083 8.55938C99.9239 9.37995 100.032 10.3802 100.032 11.5602H96.9411V10.1586C96.9411 9.81719 96.8932 9.53268 96.7973 9.30508C96.7075 9.07148 96.5158 8.95469 96.2223 8.95469C95.857 8.95469 95.6144 9.07747 95.4946 9.32305C95.3808 9.56862 95.3239 9.83815 95.3239 10.1316V17.7953C95.3239 18.2206 95.3778 18.568 95.4856 18.8375C95.5994 19.101 95.818 19.2328 96.1415 19.2328C96.4769 19.2328 96.6985 19.101 96.8063 18.8375C96.9201 18.568 96.977 18.2146 96.977 17.7773V15.5223H96.1325V12.791H99.9958V22H98.729L98.1899 20.6703C97.6389 21.6526 96.7704 22.1437 95.5845 22.1437ZM104.087 22V16.798L101.563 6.1875H104.698L105.579 11.5422L106.459 6.1875H109.586L107.07 16.798V22H104.087Z" fill="white"/>
<path d="M116.107 22L117.634 6.1875H122.998L124.498 22H121.506L121.282 19.4484H119.377L119.179 22H116.107ZM119.601 16.9238H121.039L120.347 8.88281H120.203L119.601 16.9238ZM126.388 22V6.1875H131.24C132.048 6.1875 132.659 6.37318 133.073 6.74453C133.486 7.1099 133.761 7.625 133.899 8.28984C134.043 8.9487 134.115 9.72435 134.115 10.6168C134.115 11.4793 134.004 12.1681 133.782 12.6832C133.567 13.1983 133.157 13.5547 132.552 13.7523C133.049 13.8542 133.396 14.1027 133.594 14.498C133.797 14.8874 133.899 15.3935 133.899 16.0164V22H130.782V15.8098C130.782 15.3486 130.686 15.0641 130.494 14.9563C130.308 14.8424 130.006 14.7855 129.587 14.7855V22H126.388ZM129.605 12.0453H130.368C130.806 12.0453 131.024 11.5691 131.024 10.6168C131.024 9.99987 130.976 9.59557 130.88 9.40391C130.785 9.21224 130.605 9.11641 130.341 9.11641H129.605V12.0453ZM136.077 22V6.1875H142.402V9.24219H139.293V12.3238H142.276V15.2977H139.293V18.9184H142.609V22H136.077ZM144.58 22V6.1875H147.832L149.288 13.7613V6.1875H152.342V22H149.252L147.67 14.0938V22H144.58ZM154.233 22L155.76 6.1875H161.124L162.624 22H159.632L159.408 19.4484H157.503L157.305 22H154.233ZM157.728 16.9238H159.165L158.473 8.88281H158.33L157.728 16.9238Z" fill="#F4E723"/>
<defs>
<clipPath id="clip0_3391_7334">
<rect width="28" height="28" fill="white"/>
</clipPath>
</defs>
</svg>
