<svg width="48" height="48" viewBox="0 0 48 48" fill="none" xmlns="http://www.w3.org/2000/svg">
<path d="M44.7618 3.23816C41.5932 0.0682199 33.0879 3.18606 24.0002 10.2954C14.9112 3.18606 6.40731 0.0682199 3.23738 3.23816C0.0687761 6.40809 3.18661 14.912 10.2946 24.001C3.18661 33.0887 0.0687761 41.5927 3.23738 44.7626C6.40731 47.9325 14.9112 44.8147 24.0002 37.7067C33.0879 44.8147 41.5932 47.9325 44.7618 44.7626C47.9318 41.5927 44.8139 33.0887 37.7059 24.001C44.8139 14.912 47.9318 6.40809 44.7618 3.23816ZM31.6786 24.001L25.9586 24.7237C28.4072 26.0769 32.1742 28.8822 34.7925 31.5004C38.4112 35.1205 37.8916 36.089 36.9739 37.0081C36.0548 37.9258 35.0864 38.4454 31.4663 34.8266C28.864 32.2231 26.0762 28.4774 24.7149 26.0302L24.0002 31.6781L23.2816 26.0035C21.919 28.4494 19.1338 32.1924 16.5329 34.7933C12.9142 38.412 11.9443 37.8924 11.0266 36.9747C10.1076 36.0556 9.58794 35.0871 13.2081 31.467C15.8089 28.8662 19.5439 26.0796 21.9925 24.7184L16.3219 24.001L21.9711 23.285C19.5252 21.9252 15.7769 19.1373 13.1747 16.5337C9.55454 12.9149 10.0742 11.9451 10.9932 11.0274C11.9109 10.1084 12.8808 9.58871 16.4996 13.2088C19.1178 15.8257 21.9244 19.5928 23.2762 22.04L24.0002 16.3227L24.7203 22.0133C26.0721 19.5647 28.8801 15.795 31.4996 13.1741C35.1198 9.55533 36.0882 10.075 37.0073 10.994C37.925 11.9117 38.446 12.8815 34.8259 16.5003C32.2063 19.1199 28.4272 21.9278 25.98 23.2797L31.6786 24.001ZM24.7203 22.0133C24.373 22.6425 24.1218 23.1848 23.9949 23.5963C23.864 23.1862 23.6155 22.6559 23.2762 22.04L23.1373 23.1381L21.9711 23.285C22.5709 23.619 23.0919 23.8661 23.4993 24.005C23.0932 24.1453 22.5803 24.3911 21.9925 24.7184L23.1373 24.8627L23.2816 26.0035C23.6089 25.4157 23.8533 24.9041 23.9949 24.4993C24.1325 24.9067 24.381 25.4291 24.7149 26.0302L24.8632 24.8627L25.9586 24.7237C25.3441 24.3831 24.8111 24.136 24.4023 24.005C24.8124 23.8781 25.3521 23.627 25.98 23.2797L24.8632 23.1381L24.7203 22.0133Z" fill="black"/>
</svg>
