<svg width="48" height="48" viewBox="0 0 48 48" fill="none" xmlns="http://www.w3.org/2000/svg">
<path d="M46 24C46 21.1652 42.4761 18.7026 36.3012 17.2043C36.3186 17.1511 36.3359 17.0979 36.3521 17.0436C37.1995 14.307 36.559 12.9139 35.8723 12.2271C35.1416 11.4965 33.6826 10.8745 30.8258 11.8213C29.3379 5.58053 26.8741 2.01387 24.0127 2H23.9838C21.1143 2.01387 18.6471 5.60019 17.1603 11.878C14.7937 11.0571 13.0006 11.175 11.9462 12.2271C11.2733 12.9012 10.6374 14.2631 11.4306 16.9256C11.4618 17.0308 11.4953 17.1372 11.5311 17.2436C5.46261 18.7431 2 21.1871 2 23.9977C2 26.8082 5.50886 29.2847 11.6525 30.7807C11.6306 30.8431 11.6086 30.9056 11.5866 30.968C10.5669 33.9346 11.219 35.4237 11.945 36.1498C13.0121 37.2157 14.8342 37.3232 17.2447 36.4689C18.7408 42.5235 21.1767 45.9827 23.985 45.9965H24.0139C26.8082 45.9827 29.2396 42.5455 30.7368 36.5278C33.6467 37.5163 35.1289 36.8897 35.87 36.1498C36.6099 35.4098 37.2643 33.8895 36.1868 30.8489C36.1833 30.8397 36.1798 30.8304 36.1775 30.8212C42.4264 29.3298 45.9977 26.8533 45.9977 23.9977L46 24ZM29.6477 12.8907L29.8211 13.6885L30.5795 13.389C32.6247 12.5809 34.1971 12.5162 34.8907 13.2098C35.4792 13.7983 35.5278 15.0146 35.0272 16.632C34.9555 16.8586 34.8769 17.0829 34.7936 17.3037L28.2615 20.6888C26.6973 21.4993 24.8174 20.4148 24.7376 18.6541L24.0439 3.39198C26.2001 3.44169 28.3956 7.16097 29.6454 12.8919L29.6477 12.8907ZM12.9289 13.2087C13.6445 12.4942 15.2747 12.5821 17.3997 13.4515L18.165 13.7648L18.3396 12.9566C19.5882 7.18293 21.7918 3.43707 23.9561 3.39082L23.2624 18.6529C23.1826 20.4137 21.3039 21.4981 19.7385 20.6877L12.9809 17.1858C12.8988 16.9615 12.8248 16.7407 12.7613 16.5291C12.2953 14.9637 12.3555 13.7844 12.9289 13.2098V13.2087ZM3.38967 24C3.38967 21.882 6.98754 19.6946 12.5578 18.4286C12.5659 18.4275 12.5728 18.4251 12.5821 18.424L13.2734 18.3014L19.0032 21.9664C20.4888 22.9156 20.4888 25.0856 19.0032 26.0348L13.233 29.7252L12.567 29.5737C6.99217 28.3066 3.39082 26.1192 3.39082 24.0012L3.38967 24ZM18.417 35.3856L18.2355 34.5809L17.4748 34.8977C15.3117 35.7972 13.6549 35.8966 12.9289 35.1717C12.2965 34.5393 12.2872 33.2074 12.9012 31.4212C12.9798 31.1911 13.0711 30.9553 13.1671 30.7183L19.7385 27.3112C21.3039 26.5007 23.1826 27.5852 23.2624 29.3459L23.9561 44.6092C21.8438 44.5595 19.6726 40.9489 18.417 35.3856ZM34.8919 35.1717C34.1867 35.8758 32.5877 35.8006 30.5055 34.9636L29.7506 34.6607L29.5702 35.4538C28.9251 38.2909 28.0441 40.6471 27.0244 42.268C26.3597 43.3247 25.3041 44.5837 24.0451 44.6115L24.7388 29.3471C24.8185 27.5863 26.6984 26.5019 28.2627 27.3123L34.6063 30.6003C34.7081 30.8443 34.8006 31.0825 34.8803 31.3125C35.5336 33.1554 35.537 34.5266 34.8907 35.1717H34.8919ZM35.4376 29.5725H35.4341C35.3231 29.5991 35.211 29.6246 35.0965 29.6489L34.7647 29.7205L28.9991 26.0336C27.5146 25.0845 27.5146 22.9144 28.9991 21.9652L34.7636 18.2795L35.2387 18.3824C35.2757 18.3905 35.3127 18.3986 35.3497 18.4078L35.4364 18.4275C41.0957 19.7142 44.6115 21.8496 44.6115 24.0012C44.6115 26.1527 41.0101 28.3077 35.4364 29.5737L35.4376 29.5725Z" fill="black"/>
</svg>
