<svg width="48" height="48" viewBox="0 0 48 48" fill="none" xmlns="http://www.w3.org/2000/svg">
<path d="M24 7.24811C25.4255 7.24811 26.7328 8.70697 27.7487 11.1281C28.477 10.6589 29.1908 10.2327 29.8868 9.84709C28.4757 5.05145 26.3638 2 24 2C21.6362 2 19.5805 4.96788 18.1694 9.65488C18.8749 10.0333 19.6008 10.4559 20.3409 10.9239C21.3438 8.62579 22.6152 7.24811 24 7.24811Z" fill="black"/>
<path d="M11.2832 20.1901C10.8224 19.4655 10.4034 18.7551 10.0262 18.0627C5.12666 19.4726 2 21.6084 2 24.0009C2 26.3933 5.09802 28.5088 9.95813 29.9199C10.333 29.2239 10.7496 28.5112 11.2093 27.7817C8.73922 26.761 7.24693 25.4418 7.24693 24.0009C7.24693 22.5456 8.76905 21.2144 11.2821 20.1901H11.2832Z" fill="black"/>
<path d="M24 40.752C22.5925 40.752 21.3008 39.3301 20.2896 36.9628C19.5542 37.4248 18.8343 37.8438 18.1335 38.2187C19.5447 42.9761 21.6482 46.0001 24 46.0001C26.3519 46.0001 28.5128 42.8961 29.9227 38.0265C29.2291 37.6444 28.5187 37.2206 27.7952 36.755C26.7733 39.2454 25.4481 40.752 24 40.752Z" fill="black"/>
<path d="M38.3296 18.1679C37.944 18.8711 37.5154 19.5921 37.0426 20.3264C39.361 21.3316 40.7519 22.609 40.7519 24.001C40.7519 25.393 39.3897 26.6429 37.1143 27.6434C37.5858 28.3836 38.0132 29.1082 38.3976 29.815C43.0536 28.405 46 26.323 46 24.001C46 21.679 43.0238 19.5778 38.3296 18.1679Z" fill="black"/>
<path d="M30.0456 17.3838C29.4654 17.1343 28.5987 17.2418 27.5696 17.6489C26.8271 14.2453 25.5067 11.9782 24.0012 11.9782C22.4958 11.9782 21.1647 14.2608 20.4245 17.6859C19.3942 17.2645 18.5215 17.1367 17.9234 17.3564L24.0012 22.3669L30.0468 17.3838H30.0456Z" fill="black"/>
<path d="M17.3013 17.8573C16.9563 18.4291 17.0423 19.3531 17.4804 20.4694C14.1699 21.2179 11.9768 22.5192 11.9768 24.0008C11.9768 25.4823 14.2057 26.8051 17.5616 27.55C17.09 28.671 16.9563 29.6142 17.2333 30.2278L22.3668 24.0008L17.3026 17.8573H17.3013Z" fill="black"/>
<path d="M17.7526 30.7842C18.3555 31.1078 19.3153 30.9908 20.4674 30.512C21.2159 33.8273 22.5184 36.0228 23.9999 36.0228C25.4815 36.0228 26.7744 33.844 27.5242 30.5502C28.6738 31.0123 29.6241 31.1054 30.2067 30.7496L23.9999 25.6328L17.7526 30.783V30.7842Z" fill="black"/>
<path d="M30.424 20.4479C30.8371 19.3878 30.929 18.5043 30.6353 17.9325L25.6332 24.0007L30.6974 30.143C30.9266 29.533 30.7882 28.634 30.344 27.5703C33.7524 26.8277 36.0232 25.5074 36.0232 23.9995C36.0232 22.4917 33.7883 21.1916 30.424 20.4467V20.4479Z" fill="black"/>
</svg>
